<svg xmlns="http://www.w3.org/2000/svg" width="1200" height="630" viewBox="0 0 1200 630" role="img" aria-labelledby="title desc">
  <title id="title">Sage sosyal onizleme gorseli</title>
  <desc id="desc">Sage ana sayfa icin sosyal medya onizleme gorseli.</desc>
  <defs>
    <linearGradient id="bg" x1="0%" y1="0%" x2="100%" y2="100%">
      <stop offset="0%" stop-color="#fffaf3"/>
      <stop offset="100%" stop-color="#f2eadc"/>
    </linearGradient>
    <radialGradient id="glowA" cx="0%" cy="0%" r="100%">
      <stop offset="0%" stop-color="#e05d36" stop-opacity="0.26"/>
      <stop offset="100%" stop-color="#e05d36" stop-opacity="0"/>
    </radialGradient>
    <radialGradient id="glowB" cx="100%" cy="10%" r="90%">
      <stop offset="0%" stop-color="#214f38" stop-opacity="0.18"/>
      <stop offset="100%" stop-color="#214f38" stop-opacity="0"/>
    </radialGradient>
  </defs>
  <rect width="1200" height="630" fill="url(#bg)"/>
  <rect width="1200" height="630" fill="url(#glowA)"/>
  <rect width="1200" height="630" fill="url(#glowB)"/>
  <g transform="translate(72 74)">
    <text x="0" y="0" fill="#214f38" font-size="28" font-family="Georgia, serif" font-weight="700">Sage.</text>
    <text x="0" y="94" fill="#214f38" font-size="72" font-family="Georgia, serif" font-weight="700">Evde ne var,</text>
    <text x="0" y="176" fill="#214f38" font-size="72" font-family="Georgia, serif" font-weight="700">ne bitiyor,</text>
    <text x="0" y="258" fill="#214f38" font-size="72" font-family="Georgia, serif" font-weight="700">ne pisebilir?</text>
    <text x="0" y="326" fill="#5c7265" font-size="28" font-family="Arial, Helvetica, sans-serif">Gidalari takip et, israfi azalt, aksama daha hizli karar ver.</text>
    <g transform="translate(0 404)">
      <rect x="0" y="0" width="196" height="46" rx="23" fill="#214f38" fill-opacity="0.08"/>
      <text x="28" y="30" fill="#214f38" font-size="20" font-family="Arial, Helvetica, sans-serif" font-weight="700">Envanter takibi</text>
      <rect x="216" y="0" width="180" height="46" rx="23" fill="#ffffff" fill-opacity="0.76" stroke="#ece6dc"/>
      <text x="243" y="30" fill="#214f38" font-size="20" font-family="Arial, Helvetica, sans-serif" font-weight="700">Tarif onerisi</text>
      <rect x="414" y="0" width="174" height="46" rx="23" fill="#ffffff" fill-opacity="0.76" stroke="#ece6dc"/>
      <text x="444" y="30" fill="#214f38" font-size="20" font-family="Arial, Helvetica, sans-serif" font-weight="700">Alisveris listesi</text>
    </g>
  </g>
  <g transform="translate(784 88)">
    <rect x="0" y="0" width="332" height="454" rx="32" fill="#ffffff" fill-opacity="0.9" stroke="#ece6dc"/>
    <circle cx="30" cy="28" r="6" fill="#d6d0c6"/>
    <circle cx="50" cy="28" r="6" fill="#d6d0c6"/>
    <circle cx="70" cy="28" r="6" fill="#d6d0c6"/>
    <rect x="28" y="58" width="92" height="34" rx="17" fill="#214f38" fill-opacity="0.12"/>
    <text x="51" y="80" fill="#214f38" font-size="16" font-family="Arial, Helvetica, sans-serif" font-weight="700">Oncelik</text>
    <rect x="28" y="118" width="120" height="84" rx="20" fill="#fffaf3" stroke="#ece6dc"/>
    <text x="46" y="154" fill="#214f38" font-size="34" font-family="Georgia, serif" font-weight="700">2</text>
    <text x="46" y="180" fill="#5c7265" font-size="15" font-family="Arial, Helvetica, sans-serif">hemen kullan</text>
    <rect x="162" y="118" width="142" height="84" rx="20" fill="#fffaf3" stroke="#ece6dc"/>
    <text x="180" y="154" fill="#214f38" font-size="34" font-family="Georgia, serif" font-weight="700">4/5</text>
    <text x="180" y="180" fill="#5c7265" font-size="15" font-family="Arial, Helvetica, sans-serif">aksam yemegi hazir</text>
    <rect x="28" y="224" width="276" height="194" rx="24" fill="#ffffff" stroke="#ece6dc"/>
    <text x="50" y="260" fill="#214f38" font-size="20" font-family="Georgia, serif" font-weight="700">Once tuket</text>
    <text x="50" y="310" fill="#214f38" font-size="18" font-family="Arial, Helvetica, sans-serif" font-weight="700">Domates</text>
    <text x="50" y="334" fill="#5c7265" font-size="14" font-family="Arial, Helvetica, sans-serif">Bugun kullan</text>
    <rect x="50" y="348" width="224" height="8" rx="4" fill="#efe6d7"/>
    <rect x="50" y="348" width="196" height="8" rx="4" fill="#d85d36"/>
    <text x="50" y="394" fill="#214f38" font-size="18" font-family="Arial, Helvetica, sans-serif" font-weight="700">Yumurta</text>
    <text x="50" y="418" fill="#5c7265" font-size="14" font-family="Arial, Helvetica, sans-serif">Yarin kontrol et</text>
    <rect x="50" y="432" width="224" height="8" rx="4" fill="#efe6d7"/>
    <rect x="50" y="432" width="158" height="8" rx="4" fill="#c78a2e"/>
  </g>
</svg>
